<svg width="171" height="171" viewBox="0 0 171 171" fill="none" xmlns="http://www.w3.org/2000/svg">
<path d="M162.45 78.6515H154.071C149.343 78.6515 145.521 81.7209 145.521 85.5C145.521 89.2706 149.343 92.3315 154.071 92.3315H162.45C167.17 92.3315 171 89.2791 171 85.5C171 81.7295 167.161 78.6515 162.45 78.6515ZM85.5 38.475C79.3192 38.4558 73.1956 39.659 67.4816 42.0155C61.7676 44.3719 56.576 47.835 52.2055 52.2055C47.835 56.576 44.3719 61.7676 42.0155 67.4816C39.659 73.1956 38.4558 79.3192 38.475 85.5C38.475 111.586 59.414 132.525 85.5 132.525C111.578 132.525 132.525 111.586 132.525 85.5C132.525 59.414 111.569 38.475 85.5 38.475ZM85.5 119.7C66.596 119.7 51.3 104.387 51.3 85.5C51.3 66.596 66.596 51.3 85.5 51.3C94.5704 51.3 103.269 54.9032 109.683 61.3169C116.097 67.7307 119.7 76.4296 119.7 85.5C119.7 94.5704 116.097 103.269 109.683 109.683C103.269 116.097 94.5704 119.7 85.5 119.7ZM25.65 85.5C25.65 81.7295 21.8111 78.6515 17.1 78.6515H8.55C3.82185 78.6515 0 81.7209 0 85.5C0 89.2706 3.82185 92.3315 8.55 92.3315H17.1C21.8111 92.3315 25.65 89.2706 25.65 85.5ZM85.5 25.65C89.2706 25.65 92.3315 21.8282 92.3315 17.1V8.55C92.3315 3.82185 89.2706 0 85.5 0C81.7295 0 78.6515 3.82185 78.6515 8.55V17.1C78.6515 21.8282 81.7209 25.65 85.5 25.65ZM85.5 145.35C81.7209 145.35 78.6515 149.172 78.6515 153.9V162.45C78.6515 167.178 81.7209 171 85.5 171C89.2706 171 92.3315 167.178 92.3315 162.45V153.9C92.3315 149.172 89.2706 145.35 85.5 145.35ZM148.471 32.1993C151.814 28.8563 152.352 23.9828 149.685 21.3152C147.017 18.6476 142.135 19.1947 138.809 22.5378L132.824 28.5143C129.481 31.8573 128.943 36.7308 131.61 39.3984C134.278 42.066 139.16 41.5188 142.494 38.1758L148.471 32.1993ZM28.5057 132.807L22.5207 138.801C19.1777 142.144 18.639 147 21.3066 149.668C23.9742 152.335 28.8563 151.805 32.1822 148.462L38.1672 142.486C41.5103 139.143 42.0489 134.269 39.3813 131.593C36.7137 128.917 31.8317 129.481 28.5057 132.807ZM32.1908 22.5293C28.8563 19.1862 23.9742 18.639 21.3066 21.3066C18.639 23.9742 19.1862 28.8563 22.5121 32.1993L28.4972 38.1758C31.8402 41.5188 36.7052 42.066 39.3728 39.3984C42.0404 36.7308 41.5017 31.8488 38.1672 28.5143L32.1908 22.5293ZM132.816 142.494L138.801 148.471C142.144 151.814 147.009 152.344 149.676 149.693C152.344 147.026 151.805 142.144 148.462 138.809L142.486 132.833C139.143 129.49 134.269 128.943 131.593 131.61C128.917 134.278 129.473 139.151 132.816 142.494Z" fill="black"/>
</svg>
