<svg width="137" height="160" viewBox="0 0 137 160" fill="none" xmlns="http://www.w3.org/2000/svg">
<path d="M130.935 33.8932C132.6 35.5582 134.027 37.8177 135.216 40.6719C136.405 43.526 137 46.1424 137 48.5208V151.271C137 153.649 136.168 155.671 134.503 157.336C132.838 159.001 130.816 159.833 128.438 159.833H8.5625C6.18403 159.833 4.16233 159.001 2.4974 157.336C0.832465 155.671 0 153.649 0 151.271V8.5625C0 6.18403 0.832465 4.16233 2.4974 2.4974C4.16233 0.832465 6.18403 0 8.5625 0H88.4792C90.8576 0 93.474 0.594618 96.3281 1.78385C99.1823 2.97309 101.442 4.40017 103.107 6.0651L130.935 33.8932ZM91.3333 12.1302V45.6667H124.87C124.275 43.9423 123.621 42.7233 122.908 42.0098L94.9902 14.0924C94.2767 13.3789 93.0577 12.7248 91.3333 12.1302ZM125.583 148.417V57.0833H88.4792C86.1007 57.0833 84.079 56.2509 82.4141 54.5859C80.7491 52.921 79.9167 50.8993 79.9167 48.5208V11.4167H11.4167V148.417H125.583ZM42.8125 68.5C43.2882 67.8459 43.9125 67.4743 44.6855 67.3851C45.4586 67.2959 46.1721 67.4891 46.8262 67.9648L51.375 71.3542C52.0291 71.8299 52.4007 72.4542 52.4899 73.2272C52.5791 74.0002 52.3859 74.7138 51.9102 75.3678L35.6771 97.0417L51.9102 118.715C52.3859 119.37 52.5791 120.083 52.4899 120.856C52.4007 121.629 52.0291 122.253 51.375 122.729L46.8262 126.118C46.1721 126.594 45.4586 126.787 44.6855 126.698C43.9125 126.609 43.2882 126.237 42.8125 125.583L22.6549 98.7363C21.8225 97.6065 21.8225 96.4768 22.6549 95.347L42.8125 68.5ZM114.345 95.347C115.178 96.4768 115.178 97.6065 114.345 98.7363L94.1875 125.583C93.7118 126.237 93.0875 126.609 92.3145 126.698C91.5415 126.787 90.8279 126.594 90.1738 126.118L85.625 122.729C84.9709 122.253 84.5993 121.629 84.5101 120.856C84.4209 120.083 84.6142 119.37 85.0898 118.715L101.323 97.0417L85.0898 75.3678C84.6142 74.7138 84.4209 74.0002 84.5101 73.2272C84.5993 72.4542 84.9709 71.8299 85.625 71.3542L90.1738 67.9648C90.8279 67.4891 91.5415 67.2959 92.3145 67.3851C93.0875 67.4743 93.7118 67.8459 94.1875 68.5L114.345 95.347ZM59.0456 136.465C58.2726 136.346 57.6631 135.959 57.2171 135.305C56.7712 134.651 56.6076 133.938 56.7266 133.165L69.0352 59.0456C69.1541 58.2726 69.5406 57.6631 70.1947 57.2171C70.8487 56.7712 71.5623 56.6076 72.3353 56.7266L77.9544 57.6185C78.7274 57.7374 79.3369 58.1239 79.7829 58.778C80.2288 59.4321 80.3924 60.1456 80.2734 60.9186L67.9648 135.038C67.8459 135.811 67.4594 136.42 66.8053 136.866C66.1513 137.312 65.4377 137.476 64.6647 137.357L59.0456 136.465Z" fill="black"/>
</svg>
