<svg width="158" height="158" viewBox="0 0 158 158" fill="none" xmlns="http://www.w3.org/2000/svg">
<path d="M46.1484 74.9287C40.1679 74.9287 35.2411 77.5748 31.8867 81.7705C28.5828 85.9032 26.8848 91.4139 26.8848 97.2305C26.8848 103.961 28.7647 109.356 31.9922 113.209C35.2214 117.064 39.6116 119.143 44.1436 119.521L44.2891 119.533H44.4346C44.4809 119.533 44.5284 119.532 44.5674 119.532H44.6982L44.7139 119.548L45.3311 119.813C49.54 121.623 54.1627 123.615 58.6709 124.903L61.7793 125.792L62.9111 122.765L65.1836 116.688L66.624 112.836L62.5918 112.029C61.8911 111.889 61.2236 111.749 60.5869 111.608C63.4215 107.907 64.8408 102.789 64.8408 96.6592C64.8408 91.2713 63.5003 85.9077 60.418 81.7979C57.2441 77.5661 52.4048 74.9288 46.1484 74.9287ZM46.1484 88.5771C47.002 88.5772 47.8304 88.9603 48.624 90.3672C49.4752 91.8763 50.0498 94.2618 50.0498 97.2305C50.0498 100.199 49.4753 102.586 48.624 104.095C47.8304 105.502 47.002 105.885 46.1484 105.885C45.1547 105.885 44.4325 105.51 43.7656 104.325C42.9863 102.941 42.4287 100.588 42.4287 97.2305C42.4287 94.2236 42.9711 91.8271 43.791 90.3184C44.5452 88.9307 45.3202 88.5771 46.1484 88.5771ZM79 3.5H139.77C148.167 3.50015 154.5 9.83295 154.5 18.2305V54.6924C154.5 63.09 148.167 69.4227 139.77 69.4229H136.27V88.7812L116.911 69.4229H79C70.6023 69.4229 64.2696 63.0901 64.2695 54.6924V18.2305C64.2697 9.83285 70.6023 3.5 79 3.5ZM101.081 17.2832L90.8232 53.7441L89.5713 58.1924H104.906L105.567 55.5391L107.179 49.0771H110.883L112.655 55.6084L113.355 58.1924H129.769L128.518 53.7441L118.26 17.2832L117.542 14.7305H101.799L101.081 17.2832ZM21.7305 130.192H18.2305C9.83297 130.192 3.50019 123.859 3.5 115.462V79C3.5 70.6023 9.83285 64.2697 18.2305 64.2695H52.7695C56.8718 74.6918 66.7054 82.5 79 82.5H93.7305V115.462C93.7303 123.859 87.3976 130.192 79 130.192H41.0889L21.7305 149.551V130.192Z" stroke="black" stroke-width="7"/>
</svg>
