<svg width="158" height="158" viewBox="0 0 158 158" fill="none" xmlns="http://www.w3.org/2000/svg">
<path d="M95.8955 95.3555C93.5811 92.7324 91.0352 90.418 88.2578 88.4121C85.4805 86.4062 82.4974 84.6833 79.3086 83.2432C76.1198 81.8031 72.8796 80.7487 69.5879 80.0801C66.2962 79.4115 62.8503 79.0514 59.25 79C54.724 79 50.3522 79.5915 46.1348 80.7744C41.9173 81.9574 37.9827 83.6032 34.3311 85.7119C30.6794 87.8206 27.362 90.3923 24.3789 93.4268C21.3958 96.4613 18.8242 99.8044 16.6641 103.456C14.5039 107.108 12.8324 111.042 11.6494 115.26C10.4665 119.477 9.875 123.849 9.875 128.375H0C0 122.203 0.900065 116.263 2.7002 110.554C4.50033 104.845 7.09766 99.5729 10.4922 94.7383C13.8867 89.9036 17.8984 85.609 22.5273 81.8545C27.1562 78.0999 32.4023 75.1426 38.2656 72.9824C32.4538 69.1764 27.9277 64.3932 24.6875 58.6328C21.4473 52.8724 19.8014 46.4948 19.75 39.5C19.75 34.0482 20.7786 28.9307 22.8359 24.1475C24.8932 19.3643 27.6963 15.1725 31.2451 11.5723C34.7939 7.97201 38.9857 5.14323 43.8203 3.08594C48.6549 1.02865 53.7982 0 59.25 0C64.7018 0 69.8193 1.02865 74.6025 3.08594C79.3857 5.14323 83.5775 7.94629 87.1777 11.4951C90.778 15.0439 93.6068 19.2357 95.6641 24.0703C97.7214 28.9049 98.75 34.0482 98.75 39.5C98.75 42.8945 98.3385 46.2119 97.5156 49.4521C96.6927 52.6924 95.4583 55.7526 93.8125 58.6328C92.1667 61.513 90.238 64.1618 88.0264 66.5791C85.8148 68.9964 83.2174 71.1309 80.2344 72.9824C84.5547 74.6283 88.6178 76.737 92.4238 79.3086C96.2298 81.8802 99.7015 84.889 102.839 88.335L95.8955 95.3555ZM29.625 39.5C29.625 43.6146 30.3965 47.4463 31.9395 50.9951C33.4824 54.5439 35.5911 57.6813 38.2656 60.4072C40.9401 63.1331 44.0775 65.2676 47.6777 66.8105C51.278 68.3535 55.1354 69.125 59.25 69.125C63.3132 69.125 67.1449 68.3535 70.7451 66.8105C74.3454 65.2676 77.4827 63.1589 80.1572 60.4844C82.8317 57.8099 84.9661 54.6725 86.5605 51.0723C88.1549 47.472 88.9264 43.6146 88.875 39.5C88.875 35.4368 88.1035 31.6051 86.5605 28.0049C85.0176 24.4046 82.9089 21.2673 80.2344 18.5928C77.5599 15.9183 74.3968 13.7839 70.7451 12.1895C67.0934 10.5951 63.2617 9.82357 59.25 9.875C55.1354 9.875 51.3037 10.6465 47.7549 12.1895C44.2061 13.7324 41.0687 15.8411 38.3428 18.5156C35.6169 21.1901 33.4824 24.3532 31.9395 28.0049C30.3965 31.6566 29.625 35.4883 29.625 39.5ZM142.57 69.125C144.73 69.125 146.736 69.5107 148.588 70.2822C150.439 71.0537 152.085 72.1081 153.525 73.4453C154.965 74.7826 156.046 76.4027 156.766 78.3057C157.486 80.2087 157.897 82.2402 158 84.4004C158 86.4062 157.614 88.3607 156.843 90.2637C156.071 92.1667 154.965 93.8382 153.525 95.2783L98.21 150.594L69.125 157.846L76.377 128.761L131.692 73.5225C133.184 72.0309 134.855 70.9251 136.707 70.2051C138.559 69.485 140.513 69.125 142.57 69.125ZM146.505 88.335C147.585 87.2549 148.125 85.9434 148.125 84.4004C148.125 82.806 147.611 81.5202 146.582 80.543C145.553 79.5658 144.216 79.0514 142.57 79C141.85 79 141.156 79.1029 140.487 79.3086C139.819 79.5143 139.227 79.9001 138.713 80.4658L85.3262 133.853L82.7031 144.268L93.1182 141.645L146.505 88.335Z" fill="black"/>
</svg>
