<?xml version="1.0" encoding="UTF-8"?>
<!DOCTYPE svg PUBLIC "-//W3C//DTD SVG 1.1//EN" "http://www.w3.org/Graphics/SVG/1.1/DTD/svg11.dtd">
<svg xmlns="http://www.w3.org/2000/svg" version="1.1" width="259px" height="259px" style="shape-rendering:geometricPrecision; text-rendering:geometricPrecision; image-rendering:optimizeQuality; fill-rule:evenodd; clip-rule:evenodd" xmlns:xlink="http://www.w3.org/1999/xlink">
<g><path style="opacity:0.727" fill="#248ed4" d="M 121.5,-0.5 C 126.5,-0.5 131.5,-0.5 136.5,-0.5C 141.32,0.486525 146.32,1.15319 151.5,1.5C 151.5,2.83333 151.5,4.16667 151.5,5.5C 148.221,4.50782 144.888,4.34115 141.5,5C 176.679,22.3429 200.679,49.5096 213.5,86.5C 212.036,85.5946 210.702,85.5946 209.5,86.5C 195.054,46.8863 168.221,19.2196 129,3.5C 95.7163,16.2874 71.2163,38.6207 55.5,70.5C 54.2652,70.7214 53.2652,71.3881 52.5,72.5C 51.8165,72.1373 51.1499,71.8039 50.5,71.5C 64.9507,41.8825 86.9507,19.7158 116.5,5C 86.5537,7.64108 60.887,19.4744 39.5,40.5C 38.609,39.8902 37.609,39.5569 36.5,39.5C 52.5814,22.1086 72.2481,10.2752 95.5,4C 104.255,2.15292 112.921,0.652923 121.5,-0.5 Z"/></g>
<g><path style="opacity:0.663" fill="#248cd3" d="M 151.5,1.5 C 195.843,10.8576 227.843,35.8576 247.5,76.5C 246.9,77.9002 245.9,78.9002 244.5,79.5C 225.959,39.304 194.959,14.6373 151.5,5.5C 151.5,4.16667 151.5,2.83333 151.5,1.5 Z"/></g>
<g><path style="opacity:0.676" fill="#238ed5" d="M 36.5,39.5 C 37.609,39.5569 38.609,39.8902 39.5,40.5C 11.2226,70.6667 -0.444114,106.333 4.5,147.5C 2.82124,147.285 1.82124,147.952 1.5,149.5C 0.833333,146.5 0.166667,143.5 -0.5,140.5C -0.5,133.167 -0.5,125.833 -0.5,118.5C 2.40748,87.6881 14.7408,61.3548 36.5,39.5 Z"/></g>
<g><path style="opacity:0.709" fill="#248bcf" d="M 55.5,70.5 C 52.4506,76.6414 49.7839,82.9747 47.5,89.5C 68.7831,91.8159 88.4498,98.4825 106.5,109.5C 105.448,109.351 104.448,109.517 103.5,110C 104.252,110.671 104.586,111.504 104.5,112.5C 85.8161,101.076 65.4828,94.7422 43.5,93.5C 44.6862,85.7961 47.0195,78.4628 50.5,71.5C 51.1499,71.8039 51.8165,72.1373 52.5,72.5C 53.2652,71.3881 54.2652,70.7214 55.5,70.5 Z"/></g>
<g><path style="opacity:0.688" fill="#238ed4" d="M 247.5,76.5 C 253.221,89.7233 256.887,103.39 258.5,117.5C 258.5,125.5 258.5,133.5 258.5,141.5C 251.364,193.429 223.697,229.762 175.5,250.5C 175.737,249.209 175.404,248.209 174.5,247.5C 225.026,224.591 252.026,185.258 255.5,129.5C 255.144,112.046 251.477,95.3795 244.5,79.5C 245.9,78.9002 246.9,77.9002 247.5,76.5 Z"/></g>
<g><path style="opacity:0.694" fill="#248ed4" d="M 106.5,109.5 C 116.491,116.174 126.158,123.174 135.5,130.5C 134.603,131.598 133.77,131.598 133,130.5C 131.961,131.244 131.461,132.244 131.5,133.5C 113.112,123.278 93.2784,118.278 72,118.5C 61.74,118.637 51.5733,119.637 41.5,121.5C 40.243,154.387 49.243,184.054 68.5,210.5C 67.7659,211.708 67.4326,213.041 67.5,214.5C 45.7899,186.353 36.1233,154.353 38.5,118.5C 65.024,112.655 91.1906,113.989 117,122.5C 117.5,122.333 118,122.167 118.5,122C 113.952,118.612 109.286,115.445 104.5,112.5C 104.586,111.504 104.252,110.671 103.5,110C 104.448,109.517 105.448,109.351 106.5,109.5 Z"/></g>
<g><path style="opacity:0.702" fill="#248ed6" d="M 213.5,86.5 C 219.216,104.053 220.883,121.886 218.5,140C 192.182,145.512 166.182,144.345 140.5,136.5C 140.167,135.167 139.833,135.167 139.5,136.5C 138.577,135.697 137.577,135.53 136.5,136C 137.337,137.011 137.67,138.178 137.5,139.5C 135.167,137.833 133.167,135.833 131.5,133.5C 131.461,132.244 131.961,131.244 133,130.5C 133.77,131.598 134.603,131.598 135.5,130.5C 161.498,140.666 188.165,142.833 215.5,137C 217.162,119.789 215.162,102.956 209.5,86.5C 210.702,85.5946 212.036,85.5946 213.5,86.5 Z"/></g>
<g><path style="opacity:0.706" fill="#238dd4" d="M 139.5,136.5 C 139.833,136.5 140.167,136.5 140.5,136.5C 161.548,153.914 185.881,163.414 213.5,165C 214.059,165.725 214.392,166.558 214.5,167.5C 206.203,195.931 190.537,219.431 167.5,238C 159.943,243.61 151.943,248.443 143.5,252.5C 142.778,252.082 142.278,251.416 142,250.5C 140.989,251.337 139.822,251.67 138.5,251.5C 173.574,234.103 197.574,206.77 210.5,169.5C 183.219,166.35 158.886,156.35 137.5,139.5C 137.67,138.178 137.337,137.011 136.5,136C 137.577,135.53 138.577,135.697 139.5,136.5 Z"/></g>
<g><path style="opacity:0.673" fill="#238ed4" d="M 4.5,147.5 C 11.4168,188.039 32.4168,218.706 67.5,239.5C 67.7373,240.791 67.404,241.791 66.5,242.5C 37.9382,227.099 18.1048,204.099 7,173.5C 4.2177,165.705 2.38437,157.705 1.5,149.5C 1.82124,147.952 2.82124,147.285 4.5,147.5 Z"/></g>
<g><path style="opacity:0.704" fill="#248dd5" d="M 68.5,210.5 C 84.503,230.936 104.67,245.936 129,255.5C 132.115,254.025 135.282,252.692 138.5,251.5C 139.822,251.67 140.989,251.337 142,250.5C 142.278,251.416 142.778,252.082 143.5,252.5C 143.082,253.222 142.416,253.722 141.5,254C 142.5,254.167 143.5,254.333 144.5,254.5C 154.664,252.792 164.664,250.459 174.5,247.5C 175.404,248.209 175.737,249.209 175.5,250.5C 165.267,253.974 154.934,256.641 144.5,258.5C 134.167,258.5 123.833,258.5 113.5,258.5C 96.9049,255.968 81.2382,250.635 66.5,242.5C 67.404,241.791 67.7373,240.791 67.5,239.5C 82.7473,248.083 99.0806,252.917 116.5,254C 97.0368,244.702 80.7035,231.536 67.5,214.5C 67.4326,213.041 67.7659,211.708 68.5,210.5 Z"/></g>
</svg>
