<svg width="159" height="154" viewBox="0 0 159 154" fill="none" xmlns="http://www.w3.org/2000/svg">
<path d="M55.4574 6.35751C54.8684 4.75422 53.8016 3.37031 52.401 2.39271C51.0004 1.4151 49.3335 0.8909 47.6254 0.8909C45.9174 0.8909 44.2505 1.4151 42.8499 2.39271C41.4493 3.37031 40.3824 4.75422 39.7934 6.35751L0.855928 112.045C0.0887895 114.122 0.178226 116.419 1.10456 118.43C2.0309 120.441 3.71825 122.002 5.79543 122.77C7.8726 123.537 10.1694 123.447 12.1807 122.521C14.1919 121.595 15.7528 119.907 16.5199 117.83L26.7994 89.9063H49.2163C50.5833 84.0498 52.8063 78.4268 55.8134 73.2188H32.9404L47.6254 33.3913L59.9742 66.9331C63.6667 62.0416 68.0732 57.7327 73.0461 54.1505L55.4574 6.35751ZM108.813 74.6205C106.969 74.6205 105.2 75.3531 103.896 76.657C102.592 77.961 101.86 79.7296 101.86 81.5736C101.86 83.4177 102.592 85.1863 103.896 86.4902C105.2 87.7942 106.969 88.5268 108.813 88.5268C110.657 88.5268 112.426 87.7942 113.73 86.4902C115.034 85.1863 115.766 83.4177 115.766 81.5736C115.766 79.7296 115.034 77.961 113.73 76.657C112.426 75.3531 110.657 74.6205 108.813 74.6205ZM108.813 131.636C110.288 131.636 111.703 131.05 112.746 130.007C113.789 128.964 114.375 127.549 114.375 126.074V103.824C114.375 102.348 113.789 100.934 112.746 99.8904C111.703 98.8472 110.288 98.2611 108.813 98.2611C107.338 98.2611 105.923 98.8472 104.88 99.8904C103.836 100.934 103.25 102.348 103.25 103.824V126.074C103.25 127.549 103.836 128.964 104.88 130.007C105.923 131.05 107.338 131.636 108.813 131.636ZM108.813 53.7611C95.5355 53.7611 82.8019 59.0356 73.4134 68.4241C64.0249 77.8126 58.7504 90.5462 58.7504 103.824C58.7504 117.101 64.0249 129.835 73.4134 139.223C82.8019 148.612 95.5355 153.886 108.813 153.886C122.09 153.886 134.824 148.612 144.212 139.223C153.601 129.835 158.875 117.101 158.875 103.824C158.875 90.5462 153.601 77.8126 144.212 68.4241C134.824 59.0356 122.09 53.7611 108.813 53.7611ZM108.813 142.761C103.7 142.761 98.6363 141.754 93.9122 139.797C89.1881 137.84 84.8956 134.972 81.28 131.357C77.6643 127.741 74.7962 123.448 72.8394 118.724C70.8826 114 69.8754 108.937 69.8754 103.824C69.8754 98.7103 70.8826 93.647 72.8394 88.9229C74.7962 84.1988 77.6643 79.9063 81.28 76.2907C84.8956 72.675 89.1881 69.8069 93.9122 67.8501C98.6363 65.8933 103.7 64.8861 108.813 64.8861C119.14 64.8861 129.044 68.9885 136.346 76.2907C143.648 83.5929 147.75 93.4968 147.75 103.824C147.75 114.151 143.648 124.054 136.346 131.357C129.044 138.659 119.14 142.761 108.813 142.761Z" fill="black"/>
</svg>
