<svg width="171" height="171" viewBox="0 0 171 171" fill="none" xmlns="http://www.w3.org/2000/svg">
<path d="M80.5028 2.73979C77.8634 4.20042 75.3778 5.56709 74.908 5.78063C71.7124 7.46724 68.5375 9.19278 65.384 10.9569C65.068 11.1533 56.8851 15.6035 56.048 16.0306C55.6209 16.2442 48.7192 20.0196 41.8688 23.7694C39.7846 24.914 37.9311 25.9048 37.7517 25.9731C37.3805 26.1297 37.0209 26.3124 36.6755 26.5198C36.2655 26.759 33.6603 28.2281 30.8842 29.7229L23.3249 33.8742C21.9411 34.6429 20.3609 35.4885 19.8228 35.7448C18.4811 36.4178 17.1594 37.1299 15.8594 37.8802C15.4409 38.1279 13.0492 39.4433 10.538 40.8185L3.70465 44.5598C2.46611 45.2431 1.40694 45.8069 1.33861 45.8154C1.08401 45.9004 0.840319 46.0151 0.612566 46.1571L0.0146484 46.4902V151.271H10.0169V118.266H19.6349V151.271H56.048V141.277H29.7226V108.272H10.0169V52.5548L12.5794 51.1625L18.3963 47.9679L22.8294 45.5592C24.5634 44.6367 34.2496 39.375 35.4626 38.6746C37.3296 37.6195 39.2118 36.5916 41.1086 35.591C42.1336 35.07 54.3396 28.4246 55.1596 27.9035C56.2701 27.2544 59.2938 25.6144 60.0626 25.2556C60.669 24.9652 63.3255 23.5473 64.7861 22.6931C65.0624 22.532 65.3476 22.3866 65.6403 22.2575C65.6403 22.2575 65.683 24.7175 65.6403 27.7242V33.1994L64.1455 34.0279C63.3426 34.4635 61.8563 35.2579 60.8313 35.779C59.8063 36.3 58.2005 37.1627 57.278 37.6752C56.3555 38.1877 53.5026 39.7594 50.9315 41.1602C48.3605 42.561 46.0115 43.8594 45.704 44.0473C44.8499 44.5683 42.5094 45.8154 42.4069 45.8154C42.3044 45.8154 35.9409 49.2321 35.8555 49.3602C35.7701 49.4883 33.7286 50.5475 31.1832 51.9227C28.6378 53.2979 26.229 54.6219 25.819 54.8696C25.2668 55.2358 24.6804 55.5476 24.068 55.8006C24.068 55.8006 23.0003 56.3387 21.7959 56.9879L19.6092 58.1837V98.6542H42.5094V130.771H52.4946V97.6292C52.4946 78.8887 52.4946 64.4875 52.4178 64.4875C52.0419 64.663 51.6794 64.8657 51.333 65.094C50.9649 65.3281 50.5794 65.5337 50.1799 65.709C50.1201 65.709 49.078 66.2983 47.8736 67.0073L44.1153 69.211L42.5521 70.125V88.575H29.7226V64.1971L32.1996 62.8304C39.1867 58.9867 45.294 55.6554 45.8663 55.365C49.016 53.6894 52.1481 51.981 55.2621 50.24C58.2811 48.5539 61.3193 46.9024 64.3761 45.2858C65.9905 44.4487 74.6261 39.7508 75.1813 39.3835L75.7194 39.0504V16.7054L76.7188 16.1588C79.4722 14.7545 82.1948 13.2907 84.8846 11.7683L85.4142 11.4438L86.0463 11.811C87.2763 12.5285 92.4355 15.3046 93.0163 15.5608C93.3324 15.706 94.0584 16.0904 94.6221 16.415L100.601 19.695C103.318 21.1813 105.59 22.4283 105.641 22.471C105.82 22.6162 110.868 25.341 111.338 25.5546C111.808 25.7681 114.533 27.2629 116.241 28.211L116.942 28.6125V39.5458L115.797 38.9137C112.73 37.2054 110.416 35.9583 110.083 35.8131C109.191 35.3711 108.311 34.9068 107.443 34.4208C106.196 33.7375 102.865 31.8583 100.029 30.3379C98.106 29.3074 96.1954 28.2538 94.2976 27.1775C93.7445 26.8611 93.1742 26.576 92.5892 26.3233C91.9401 26.0585 90.1121 25.025 88.4551 24.1281C86.798 23.2313 85.4996 22.471 85.4996 22.4967C85.4996 22.5223 85.4313 32.8577 85.3971 45.4738C85.4019 53.1216 85.3564 60.7694 85.2605 68.4167C85.1563 68.3786 85.0606 68.3205 84.9786 68.2458C83.5104 67.3509 82.0179 66.4964 80.5028 65.6833C79.5313 65.166 78.5742 64.622 77.6328 64.0519C73.883 61.8567 65.6744 57.0819 65.5549 57.0477C65.4353 57.0135 65.478 64.684 65.478 74.131V91.2144L65.7769 91.4108C66.3065 91.761 72.1405 95.1008 72.3796 95.1948C72.6188 95.2887 75.3521 96.8348 75.5571 97.0056C75.634 97.0654 77.9488 98.4235 80.6821 100.012C83.4155 101.601 86.1232 103.173 86.6613 103.497L88.3696 104.514C89.3007 105.026 89.3092 104.958 88.2757 105.479C87.6326 105.809 87.0002 106.159 86.3794 106.53C85.8157 106.871 83.1678 108.409 80.5028 109.946C77.8378 111.484 75.5828 112.825 75.5059 112.893C75.429 112.961 75.3607 112.756 75.3436 110.51V107.947L74.8994 107.666C73.6642 106.916 72.4081 106.201 71.1326 105.522C70.1141 104.981 69.1114 104.412 68.1259 103.813C67.2611 103.286 66.381 102.785 65.4865 102.31C65.4609 102.31 65.4865 108.571 65.4865 116.216V130.13C65.4865 130.13 67.4853 129.011 69.8513 127.636L74.3101 125.074L84.5601 119.197C84.7082 119.12 84.8483 119.028 84.9786 118.924C84.9786 118.924 86.5246 118.01 88.3953 116.959C94.7843 113.311 101.151 109.624 107.494 105.897C108.06 105.587 108.608 105.245 109.134 104.872C108.537 104.445 107.912 104.057 107.264 103.711C106.239 103.113 105.282 102.541 105.128 102.438C104.975 102.336 102.566 100.952 99.8582 99.3631C97.1505 97.7744 94.7332 96.4077 94.6051 96.3137C91.4426 94.5629 88.3074 92.7633 85.2007 90.9154C82.1312 89.0976 79.0359 87.3236 75.9159 85.594C75.7938 85.5881 75.6744 85.556 75.5657 85.5L75.3692 85.3377V74.2933L75.8817 74.5923L76.8128 75.1219C77.6669 75.5831 85.0042 79.8112 85.5424 80.1615C86.499 80.7679 94.3659 85.2865 94.4684 85.2865C94.8271 85.4325 95.1681 85.6188 95.4849 85.8417C96.505 86.5265 97.5962 87.0992 98.7392 87.55L100.875 86.3542C107.247 82.7069 108.485 81.9808 108.485 81.8954C107.911 81.4799 107.312 81.1005 106.692 80.7594C103.765 79.0282 100.815 77.3368 97.8424 75.6856C97.774 75.6856 97.1932 75.361 96.5013 74.9681L95.2286 74.2506V63.881C95.2286 58.1752 95.2286 50.2827 95.2884 46.3535L95.3567 39.1956L95.7326 39.4262C96.1084 39.6483 102.412 43.0735 110.723 47.575C112.961 48.7794 115.122 49.9667 115.532 50.2058C117.001 51.06 125.09 55.4333 125.227 55.4333C125.26 55.4281 125.293 55.4326 125.324 55.4463C125.354 55.4599 125.38 55.4821 125.398 55.5102C125.881 55.8344 126.39 56.1199 126.918 56.3644C126.918 56.3644 126.969 51.3675 126.969 45.2602V34.156L129.045 35.2152C130.19 35.8046 132.112 36.821 133.316 37.4958L140.602 41.4848C143.404 43.0052 145.727 44.3121 145.829 44.3719C145.932 44.4317 146.453 44.7306 147.042 45.0296C148.067 45.5335 152.048 47.6946 158.061 51.0087L160.812 52.5292V104.838H151.27V58.1667L149.289 57.1075L146.231 55.4931C145.818 55.2931 145.413 55.0765 145.018 54.844C144.787 54.656 136.938 50.4023 136.818 50.4023C136.67 52.2892 136.647 54.184 136.75 56.074V61.7542L139.039 62.9927L141.319 64.2398V76.9583L140.209 76.3092C139.826 76.0609 139.423 75.8438 139.005 75.66C138.902 75.66 135.665 73.7979 135.118 73.4221C133.358 72.3563 131.584 71.3141 129.797 70.2958C127.038 68.7156 124.364 67.1354 123.775 66.7767C123.261 66.4642 122.73 66.179 122.186 65.9225C119.843 64.6355 117.525 63.3027 115.233 61.925C111.896 59.9422 108.536 57.9975 105.154 56.091C105.077 56.091 105.103 58.6535 105.103 61.8567V67.6137L105.444 67.8444L110.689 70.9108C113.371 72.474 115.814 73.8919 116.07 74.0627C116.327 74.2335 117.001 74.6179 117.565 74.9169C118.684 75.5062 125.406 79.3842 125.628 79.5721C125.85 79.76 129.959 82.1346 138.535 87.0375L141.311 88.6348V114.815H160.957V160.94H151.27V124.518H141.277V160.931H75.7451V151.271H131.667V141.277H103.377V132.223L104.009 131.83C104.351 131.616 106.862 130.122 109.587 128.576L114.909 125.466C115.165 125.304 115.43 125.156 115.703 125.022C116.147 124.809 123.92 120.316 124.706 119.82L128.396 117.651L131.616 115.78V95.1862L128.43 93.3412C126.67 92.3333 125.176 91.4621 125.116 91.4023C122.833 90.0471 120.526 88.7315 118.197 87.456C117.289 87.9017 116.407 88.4009 115.558 88.9508C115.353 89.0875 113.644 90.0869 111.748 91.1887C110.569 91.8189 109.428 92.5177 108.332 93.2815C109.321 93.9627 110.357 94.5735 111.432 95.1094C112.004 95.4083 113.14 96.0746 114.046 96.5871C114.951 97.0996 116.993 98.2954 118.65 99.2692L121.657 101.02V109.98L118.599 111.766L113.935 114.499C113.081 115.02 112.227 115.49 112.073 115.541C109.907 116.738 107.762 117.974 105.641 119.248C105.564 119.308 103.343 120.615 100.695 122.144C98.0474 123.673 95.7155 125.039 95.5019 125.185C95.3524 125.29 95.192 125.378 95.0236 125.449C94.7309 125.578 94.4458 125.724 94.1694 125.885L93.4178 126.312V141.32H65.6574V160.966H0.0317315V170.917H170.968V46.4731L170.062 46.0375C168.241 45.1156 166.444 44.1472 164.672 43.1333C164.416 42.9796 162.212 41.7752 159.769 40.4512C157.327 39.1273 155.131 37.8887 154.875 37.7606C153.732 37.0958 152.566 36.469 151.382 35.8815C151.159 35.8131 149.673 35.0273 147.965 34.0365C139.372 29.3215 134.853 26.8615 133.196 25.9817C132.188 25.4521 129.925 24.2135 128.148 23.2483C122.041 19.8915 115.78 16.4663 114.985 16.0563C114.191 15.6463 108.656 12.6396 100.815 8.32604C99.35 7.50549 97.8692 6.71381 96.3732 5.95146C96.0139 5.79617 95.6657 5.61637 95.3311 5.41334C92.062 3.58514 88.7646 1.80826 85.4399 0.0833359C85.3117 0.0833359 83.1507 1.28771 80.5028 2.73979Z" fill="black"/>
</svg>
