<svg width="138" height="138" viewBox="0 0 138 138" fill="none" xmlns="http://www.w3.org/2000/svg">
<path d="M18.4469 98.4107L8.10119 108.736C6.91536 109.793 6.13049 111.227 5.87902 112.795C5.62756 114.364 5.92489 115.971 6.72085 117.346L21.1392 131.108C23.0662 133.104 26.927 132.284 29.961 129.455L39.6849 119.068M111.066 98.479C93.4154 112.727 75.6897 108.668 66.861 108.668C58.0324 108.668 57.4789 110.458 51.0009 117.346C50.1841 118.222 49.1986 118.924 48.1035 119.41C47.0198 119.902 45.8432 120.157 44.6527 120.157C43.4622 120.157 42.2856 119.902 41.2019 119.41C40.0842 118.929 39.0771 118.225 38.243 117.339L20.5174 99.791C19.6154 98.9151 18.9097 97.8577 18.4469 96.6887C17.9809 95.5769 17.746 94.3818 17.7567 93.1764C17.7319 91.9737 17.9655 90.7798 18.4417 89.6752C18.918 88.5706 19.6258 87.5811 20.5174 86.7735C27.4122 80.3024 29.346 79.0655 29.346 70.8724C29.346 60.554 24.4465 40.997 44.6527 20.7567C49.5574 15.8257 55.4265 11.9595 61.8932 9.3997C68.4692 6.7908 75.5142 5.57166 82.5845 5.81903C89.692 6.03395 96.6761 7.73144 103.089 10.8027C109.502 13.874 115.203 18.2513 119.826 23.654C126.758 31.7376 131.007 41.775 131.987 52.3785C132.966 62.9821 130.627 73.6279 125.293 82.8444C121.75 88.9673 116.978 94.2906 111.278 98.479H111.066Z" stroke="black" stroke-width="10.25" stroke-linecap="round" stroke-linejoin="round"/>
<path d="M91.1925 27.1322L56.5954 56.331C56.3142 56.5445 56.093 56.8269 55.953 57.151C55.8009 57.484 55.7173 57.8442 55.707 58.2102C55.7776 58.554 55.9352 58.874 56.1649 59.1395C56.4496 59.2801 56.763 59.3526 57.0805 59.3513L76.986 63.998L68.376 87.1083C68.3111 87.2424 68.2783 87.3898 68.2804 87.5388L68.6357 87.6208L69.0594 87.7165L103.657 58.5177C103.948 58.5426 104.24 58.4822 104.497 58.3439C104.754 58.2055 104.966 57.9952 105.105 57.7387C105.283 57.4149 105.371 57.0489 105.358 56.6795C105.287 56.3356 105.13 56.0156 104.9 55.7502C104.613 55.6086 104.298 55.536 103.978 55.5383L84.1474 50.9122L92.156 28.1025C92.2055 28.0451 92.2405 27.9767 92.2583 27.903C92.2762 27.8294 92.2762 27.7525 92.2585 27.6788L91.828 27.5832L91.1925 27.1322Z" stroke="black" stroke-width="10.25" stroke-linecap="round" stroke-linejoin="round"/>
</svg>
