<svg width="188" height="188" viewBox="0 0 188 188" fill="none" xmlns="http://www.w3.org/2000/svg">
<path fill-rule="evenodd" clip-rule="evenodd" d="M50.9167 50.9167C49.8779 50.9167 48.8817 51.3293 48.1472 52.0638C47.4126 52.7984 47 53.7946 47 54.8333V117.343C47 118.382 47.4126 119.378 48.1472 120.113C48.8817 120.847 49.8779 121.26 50.9167 121.26H90.0833V129.65H72.3095V137.483H115.694V129.65H97.9167V121.256H137.083C138.122 121.256 139.118 120.843 139.853 120.109C140.587 119.374 141 118.378 141 117.339V54.8333C141 53.7946 140.587 52.7984 139.853 52.0638C139.118 51.3293 138.122 50.9167 137.083 50.9167H50.9167ZM89.7191 61.4682L76.3907 84.9094H54.2302V92.6918H80.9928L87.3338 81.5411L94.7402 107.187L112.091 85.1248H129.834C130.871 85.13 131.868 84.7235 132.606 83.9943C133.344 83.2651 133.763 82.273 133.77 81.2356C133.764 80.1975 133.346 79.2043 132.607 78.4743C131.869 77.7443 130.872 77.3372 129.834 77.3424H108.241L98.0498 90.3066L89.7191 61.4682Z" fill="black"/>
<path fill-rule="evenodd" clip-rule="evenodd" d="M35.25 23.5C32.1337 23.5 29.145 24.7379 26.9415 26.9415C24.7379 29.145 23.5 32.1337 23.5 35.25V152.75C23.5 155.866 24.7379 158.855 26.9415 161.059C29.145 163.262 32.1337 164.5 35.25 164.5H152.75C155.866 164.5 158.855 163.262 161.059 161.059C163.262 158.855 164.5 155.866 164.5 152.75V35.25C164.5 32.1337 163.262 29.145 161.059 26.9415C158.855 24.7379 155.866 23.5 152.75 23.5H35.25ZM156.667 35.25C156.667 34.2112 156.254 33.215 155.52 32.4805C154.785 31.746 153.789 31.3333 152.75 31.3333H35.25C34.2112 31.3333 33.215 31.746 32.4805 32.4805C31.746 33.215 31.3333 34.2112 31.3333 35.25V152.75C31.3333 153.789 31.746 154.785 32.4805 155.52C33.215 156.254 34.2112 156.667 35.25 156.667H152.75C153.789 156.667 154.785 156.254 155.52 155.52C156.254 154.785 156.667 153.789 156.667 152.75V35.25Z" fill="black"/>
</svg>
