<svg width="140" height="140" viewBox="0 0 140 140" fill="none" xmlns="http://www.w3.org/2000/svg">
<path d="M96 34.25C95.597 23.122 94.2125 16.375 89.4935 11.6625C82.818 5 72.0735 5 50.5845 5C29.0955 5 18.351 5 11.6755 11.6625C5 18.325 5 29.05 5 50.5V89.5C5 110.95 5 121.675 11.6755 128.338C18.351 135 29.0955 135 50.5845 135C72.0735 135 82.818 135 89.4935 128.338C94.2125 123.625 95.597 116.878 96 105.75M44 115.5H57M96 69.935V70M122.312 99.1915C130.151 91.71 135 81.375 135 69.9415C135 58.521 130.151 48.1795 122.312 40.6915M109 55.3165C112.919 59.0605 115.344 64.2345 115.344 69.9415C115.344 75.655 112.919 80.8225 109 84.5665" stroke="black" stroke-width="9.75" stroke-linecap="round" stroke-linejoin="round"/>
</svg>
